<?xml version="1.0" encoding="UTF-8" standalone="no"?>
<!-- Created with Inkscape (http://www.inkscape.org/) -->
<svg
   xmlns:dc="http://purl.org/dc/elements/1.1/"
   xmlns:cc="http://creativecommons.org/ns#"
   xmlns:rdf="http://www.w3.org/1999/02/22-rdf-syntax-ns#"
   xmlns:svg="http://www.w3.org/2000/svg"
   xmlns="http://www.w3.org/2000/svg"
   xmlns:xlink="http://www.w3.org/1999/xlink"
   xmlns:sodipodi="http://sodipodi.sourceforge.net/DTD/sodipodi-0.dtd"
   xmlns:inkscape="http://www.inkscape.org/namespaces/inkscape"
   width="22"
   height="22"
   id="svg2"
   sodipodi:version="0.32"
   inkscape:version="0.45+0.46pre0"
   version="1.0"
   sodipodi:docbase="/home/lapo/Icone"
   sodipodi:docname="ad-block-22.svg"
   inkscape:output_extension="org.inkscape.output.svg.inkscape">
  <defs
     id="defs4">
    <linearGradient
       inkscape:collect="always"
       id="linearGradient3270">
      <stop
         style="stop-color:#fff8b5;stop-opacity:1"
         offset="0"
         id="stop3272" />
      <stop
         style="stop-color:#edd400;stop-opacity:1"
         offset="1"
         id="stop3274" />
    </linearGradient>
    <linearGradient
       inkscape:collect="always"
       id="linearGradient3383">
      <stop
         style="stop-color:#000000;stop-opacity:1;"
         offset="0"
         id="stop3385" />
      <stop
         style="stop-color:#000000;stop-opacity:0;"
         offset="1"
         id="stop3387" />
    </linearGradient>
    <linearGradient
       inkscape:collect="always"
       id="linearGradient3360">
      <stop
         style="stop-color:#ffffff;stop-opacity:1;"
         offset="0"
         id="stop3362" />
      <stop
         style="stop-color:#ffffff;stop-opacity:0;"
         offset="1"
         id="stop3364" />
    </linearGradient>
    <radialGradient
       inkscape:collect="always"
       xlink:href="#linearGradient3383"
       id="radialGradient2589"
       gradientUnits="userSpaceOnUse"
       gradientTransform="matrix(1,0,0,0.4889336,0,8.0475196)"
       cx="11.026446"
       cy="15.746525"
       fx="11.026446"
       fy="15.746525"
       r="10.982252" />
    <radialGradient
       inkscape:collect="always"
       xlink:href="#linearGradient3270"
       id="radialGradient2591"
       gradientUnits="userSpaceOnUse"
       gradientTransform="matrix(1.3127642,-0.29722,0.1616388,0.7236796,3.9475013,3.6871901)"
       cx="-5.1485057"
       cy="-16.570957"
       fx="-5.1485057"
       fy="-16.570957"
       r="29.191137" />
    <linearGradient
       inkscape:collect="always"
       xlink:href="#linearGradient3360"
       id="linearGradient2593"
       gradientUnits="userSpaceOnUse"
       x1="-7.7211752"
       y1="-5.8474998"
       x2="30.817724"
       y2="57.718281" />
  </defs>
  <sodipodi:namedview
     id="base"
     pagecolor="#ffffff"
     bordercolor="#afafaf"
     borderopacity="1"
     inkscape:pageopacity="0"
     inkscape:pageshadow="2"
     inkscape:zoom="1"
     inkscape:cx="5.7933964"
     inkscape:cy="7.7638834"
     inkscape:document-units="px"
     inkscape:current-layer="layer1"
     width="16px"
     height="16px"
     inkscape:showpageshadow="false"
     borderlayer="true"
     inkscape:window-width="1267"
     inkscape:window-height="957"
     inkscape:window-x="5"
     inkscape:window-y="24"
     showgrid="false"
     inkscape:grid-points="true"
     showborder="false">
    <inkscape:grid
       id="GridFromPre046Settings"
       type="xygrid"
       originx="0px"
       originy="0px"
       spacingx="0.5px"
       spacingy="0.5px"
       color="#0000ff"
       empcolor="#0000ff"
       opacity="0.2"
       empopacity="0.4"
       empspacing="2" />
  </sodipodi:namedview>
  <metadata
     id="metadata7">
    <rdf:RDF>
      <cc:Work
         rdf:about="">
        <dc:format>image/svg+xml</dc:format>
        <dc:type
           rdf:resource="http://purl.org/dc/dcmitype/StillImage" />
        <dc:creator>
          <cc:Agent>
            <dc:title>Lapo Calamandrei</dc:title>
          </cc:Agent>
        </dc:creator>
        <cc:license
           rdf:resource="http://creativecommons.org/licenses/GPL/2.0/" />
        <dc:title></dc:title>
        <dc:date></dc:date>
        <dc:rights>
          <cc:Agent>
            <dc:title></dc:title>
          </cc:Agent>
        </dc:rights>
        <dc:publisher>
          <cc:Agent>
            <dc:title></dc:title>
          </cc:Agent>
        </dc:publisher>
        <dc:identifier></dc:identifier>
        <dc:source></dc:source>
        <dc:relation></dc:relation>
        <dc:language></dc:language>
        <dc:subject>
          <rdf:Bag />
        </dc:subject>
        <dc:coverage></dc:coverage>
        <dc:description></dc:description>
        <dc:contributor>
          <cc:Agent>
            <dc:title></dc:title>
          </cc:Agent>
        </dc:contributor>
      </cc:Work>
      <cc:License
         rdf:about="http://creativecommons.org/licenses/GPL/2.0/">
        <cc:permits
           rdf:resource="http://web.resource.org/cc/Reproduction" />
        <cc:permits
           rdf:resource="http://web.resource.org/cc/Distribution" />
        <cc:requires
           rdf:resource="http://web.resource.org/cc/Notice" />
        <cc:permits
           rdf:resource="http://web.resource.org/cc/DerivativeWorks" />
        <cc:requires
           rdf:resource="http://web.resource.org/cc/ShareAlike" />
        <cc:requires
           rdf:resource="http://web.resource.org/cc/SourceCode" />
      </cc:License>
    </rdf:RDF>
  </metadata>
  <g
     inkscape:label="Livello 1"
     inkscape:groupmode="layer"
     id="layer1">
    <g
       id="g2549"
       transform="translate(30,0)">
      <path
         transform="translate(-30.044194,0.928078)"
         d="M 22.008698,15.746525 A 10.982252,5.3695922 0 1 1 0.044194221,15.746525 A 10.982252,5.3695922 0 1 1 22.008698,15.746525 z"
         sodipodi:ry="5.3695922"
         sodipodi:rx="10.982252"
         sodipodi:cy="15.746525"
         sodipodi:cx="11.026446"
         id="path3234"
         style="opacity:0.3;fill:url(#radialGradient2589);fill-opacity:1;stroke:none;stroke-width:1;stroke-linecap:round;stroke-linejoin:miter;stroke-miterlimit:4;stroke-dasharray:none;stroke-dashoffset:0;stroke-opacity:1"
         sodipodi:type="arc" />
      <path
         transform="matrix(0.3468006,7.7988137e-2,-7.7457868e-2,0.3444588,-20.043476,10.816075)"
         d="M 13.46404,13.377538 L 12.552308,26.55842 L 2.4276384,18.069725 L -6.7432965,27.580817 L -9.0428153,14.570087 L -22.181771,15.961042 L -15.580169,4.5161432 L -26.539281,-2.8638809 L -14.125521,-7.3877544 L -17.7769,-20.085563 L -5.3595186,-15.57164 L 0.0053563245,-27.645786 L 6.6161288,-16.206182 L 18.486973,-22.007039 L 16.197883,-8.9944711 L 29.020197,-5.8077543 L 18.902334,2.6890523 L 26.676414,13.372244 L 13.46404,13.377538 z"
         inkscape:randomized="0"
         inkscape:rounded="0"
         inkscape:flatsided="false"
         sodipodi:arg2="1.168794"
         sodipodi:arg1="0.8197281"
         sodipodi:r2="28.247856"
         sodipodi:r1="17.531784"
         sodipodi:cy="0.56249994"
         sodipodi:cx="1.5"
         sodipodi:sides="9"
         id="path3236"
         style="fill:url(#radialGradient2591);fill-opacity:1;stroke:#c4a000;stroke-width:2.82279515;stroke-linecap:round;stroke-linejoin:round;stroke-miterlimit:4;stroke-dasharray:none;stroke-dashoffset:0;stroke-opacity:1"
         sodipodi:type="star" />
      <path
         transform="matrix(0.343388,7.7221803e-2,-7.6695666e-2,0.341074,-19.994658,10.818832)"
         d="M 0.3125,-21.78125 L -2.9375,-14.46875 C -3.5148171,-13.199745 -4.9704917,-12.587545 -6.28125,-13.0625 L -13.78125,-15.8125 L -11.5625,-8.125 C -11.174812,-6.7747587 -11.898436,-5.3548172 -13.21875,-4.875 L -20.6875,-2.15625 L -14.09375,2.3125 C -12.926866,3.100637 -12.571483,4.6588548 -13.28125,5.875 L -17.25,12.75 L -9.3125,11.90625 C -7.9204907,11.762236 -6.6530268,12.716241 -6.40625,14.09375 L -5.03125,21.96875 L 0.5,16.21875 C 1.4694457,15.191087 3.0711902,15.095256 4.15625,16 L 10.28125,21.125 L 10.8125,13.1875 C 10.903437,11.78565 12.063966,10.693387 13.46875,10.6875 L 21.4375,10.6875 L 16.75,4.25 C 15.919285,3.1147822 16.110554,1.5299828 17.1875,0.625 L 23.28125,-4.5 L 15.53125,-6.40625 C 14.17379,-6.7533383 13.314696,-8.0897067 13.5625,-9.46875 L 14.96875,-17.3125 L 7.78125,-13.8125 C 6.524855,-13.207744 5.0146554,-13.670327 4.3125,-14.875 L 0.3125,-21.78125 z"
         id="path3238"
         style="fill:none;fill-opacity:1;stroke:url(#linearGradient2593);stroke-width:2.85082793;stroke-linecap:round;stroke-linejoin:miter;stroke-miterlimit:4;stroke-dasharray:none;stroke-dashoffset:0;stroke-opacity:1"
         inkscape:original="M 0 -27.65625 L -5.375 -15.5625 L -17.78125 -20.09375 L -14.125 -7.375 L -26.53125 -2.875 L -15.59375 4.53125 L -22.1875 15.96875 L -9.03125 14.5625 L -6.75 27.59375 L 2.4375 18.0625 L 12.5625 26.5625 L 13.46875 13.375 L 26.6875 13.375 L 18.90625 2.6875 L 29.03125 -5.8125 L 16.1875 -9 L 18.5 -22 L 6.625 -16.21875 L 0 -27.65625 z "
         inkscape:radius="-2.672791"
         sodipodi:type="inkscape:offset" />
      <path
         id="path3242"
         d="M -20,7 L -20,8.03125 C -20.546723,8.0825783 -20.998439,8.2066271 -21.34375,8.4375 C -21.784601,8.7343802 -22.000001,9.1406297 -22,9.65625 C -22.000001,10.101566 -21.851581,10.468753 -21.53125,10.71875 C -21.21614,10.96468 -20.698748,11.132596 -20,11.25 L -20,13.375 C -20.273277,13.357875 -20.532104,13.34954 -20.8125,13.28125 C -21.186748,13.190105 -21.578647,13.054688 -21.96875,12.875 L -21.96875,13.6875 C -21.562788,13.809896 -21.15867,13.90625 -20.78125,13.96875 C -20.501608,14.014673 -20.255673,14.01907 -20,14.03125 L -20,15 L -19,15 L -19,14 C -18.459042,13.939606 -18.012733,13.831269 -17.6875,13.625 C -17.224454,13.333334 -17.000006,12.877605 -17,12.3125 C -17.000006,11.838544 -17.157474,11.468752 -17.5,11.1875 C -17.822114,10.918077 -18.337868,10.739582 -19,10.625 L -19,8.65625 C -18.8239,8.6735188 -18.651974,8.7101799 -18.46875,8.75 C -18.145253,8.8203176 -17.802237,8.9192758 -17.4375,9.0625 L -17.4375,8.3125 C -17.799065,8.2135474 -18.154302,8.1119849 -18.5,8.0625 C -18.672853,8.0377634 -18.83032,8.0436198 -19,8.03125 L -19,7 L -20,7 z M -20.09375,8.71875 C -20.066682,8.7131719 -20.028134,8.7235814 -20,8.71875 L -20,10.4375 C -20.339851,10.367041 -20.605094,10.286655 -20.75,10.1875 C -20.937125,10.054691 -21.031252,9.8515665 -21.03125,9.59375 C -21.031252,9.286463 -20.907272,9.0416715 -20.625,8.875 C -20.48228,8.7916693 -20.295938,8.7604167 -20.09375,8.71875 z M -19,11.4375 C -18.716049,11.510964 -18.46125,11.605731 -18.3125,11.71875 C -18.096837,11.88021 -18.000005,12.088543 -18,12.375 C -18.000005,12.703126 -18.139376,12.979167 -18.4375,13.15625 C -18.586566,13.244792 -18.788297,13.299479 -19,13.34375 L -19,11.4375 z"
         style="font-size:8.82863617px;font-style:normal;font-weight:normal;fill:#000000;fill-opacity:1;stroke:none;stroke-width:1px;stroke-linecap:butt;stroke-linejoin:miter;stroke-opacity:1;font-family:Bitstream Vera Sans" />
      <g
         transform="translate(-50,0)"
         id="g3244">
        <rect
           style="opacity:1;fill:#ef2929;fill-opacity:1;fill-rule:evenodd;stroke:#a40000;stroke-width:1;stroke-linecap:square;stroke-linejoin:round;marker:none;marker-start:none;marker-mid:none;marker-end:none;stroke-miterlimit:4;stroke-dasharray:none;stroke-dashoffset:0;stroke-opacity:1;visibility:visible;display:inline;overflow:visible;enable-background:accumulate"
           id="rect3246"
           width="8"
           height="8"
           x="33.5"
           y="13.5"
           rx="1.4584078"
           ry="1.4584078" />
        <g
           id="g3248"
           style="opacity:0.75">
          <rect
             y="15"
             x="35"
             height="2"
             width="2"
             id="rect3250"
             style="opacity:1;fill:#ffffff;fill-opacity:1;fill-rule:evenodd;stroke:none;stroke-width:1;stroke-linecap:square;stroke-linejoin:round;marker:none;marker-start:none;marker-mid:none;marker-end:none;stroke-miterlimit:4;stroke-dasharray:none;stroke-dashoffset:0;stroke-opacity:1;visibility:visible;display:inline;overflow:visible;enable-background:accumulate" />
          <rect
             y="15"
             x="38"
             height="2"
             width="2"
             id="rect3252"
             style="opacity:1;fill:#ffffff;fill-opacity:1;fill-rule:evenodd;stroke:none;stroke-width:1;stroke-linecap:square;stroke-linejoin:round;marker:none;marker-start:none;marker-mid:none;marker-end:none;stroke-miterlimit:4;stroke-dasharray:none;stroke-dashoffset:0;stroke-opacity:1;visibility:visible;display:inline;overflow:visible;enable-background:accumulate" />
          <rect
             y="18"
             x="38"
             height="2"
             width="2"
             id="rect3254"
             style="opacity:1;fill:#ffffff;fill-opacity:1;fill-rule:evenodd;stroke:none;stroke-width:1;stroke-linecap:square;stroke-linejoin:round;marker:none;marker-start:none;marker-mid:none;marker-end:none;stroke-miterlimit:4;stroke-dasharray:none;stroke-dashoffset:0;stroke-opacity:1;visibility:visible;display:inline;overflow:visible;enable-background:accumulate" />
          <rect
             y="18"
             x="35"
             height="2"
             width="2"
             id="rect3256"
             style="opacity:1;fill:#ffffff;fill-opacity:1;fill-rule:evenodd;stroke:none;stroke-width:1;stroke-linecap:square;stroke-linejoin:round;marker:none;marker-start:none;marker-mid:none;marker-end:none;stroke-miterlimit:4;stroke-dasharray:none;stroke-dashoffset:0;stroke-opacity:1;visibility:visible;display:inline;overflow:visible;enable-background:accumulate" />
          <rect
             y="16"
             x="36"
             height="3"
             width="3"
             id="rect3258"
             style="opacity:1;fill:#ffffff;fill-opacity:1;fill-rule:evenodd;stroke:none;stroke-width:1;stroke-linecap:square;stroke-linejoin:round;marker:none;marker-start:none;marker-mid:none;marker-end:none;stroke-miterlimit:4;stroke-dasharray:none;stroke-dashoffset:0;stroke-opacity:1;visibility:visible;display:inline;overflow:visible;enable-background:accumulate" />
        </g>
        <path
           style="fill:none;fill-rule:evenodd;stroke:#ffffff;stroke-width:1px;stroke-linecap:round;stroke-linejoin:miter;stroke-opacity:1"
           d="M 35.5,19.5 L 39.5,15.5"
           id="path3260" />
        <path
           style="fill:none;fill-rule:evenodd;stroke:#ffffff;stroke-width:1px;stroke-linecap:round;stroke-linejoin:miter;stroke-opacity:1"
           d="M 39.5,19.5 L 35.5,15.5"
           id="path3262" />
      </g>
    </g>
  </g>
</svg>
